<svg width="371" height="152" viewBox="0 0 371 152" fill="none" xmlns="http://www.w3.org/2000/svg">
<rect x="2.36" y="2.19999" width="366.48" height="147.6" stroke="#E6E6DD" stroke-width="3.6"/>
<path d="M97.6699 115.16V35.9599H121.79L128.45 84.2449L135.065 35.9599H159.41V115.16H144.92V58.0999L135.83 115.16H121.61L111.98 58.0999V115.16H97.6699ZM166.43 115.16V35.9599H198.11V51.2599H182.54V66.6949H197.48V81.5899H182.54V99.7249H199.145V115.16H166.43ZM211.205 115.16V51.1699H201.8V35.9599H236.45V51.1699H227.045V115.16H211.205ZM240.86 115.16V35.9599H265.16C269.21 35.9599 272.27 36.8899 274.34 38.7499C276.41 40.5799 277.79 43.1599 278.48 46.4899C279.2 49.7899 279.56 53.6749 279.56 58.1449C279.56 62.4649 279.005 65.9149 277.895 68.4949C276.815 71.0749 274.76 72.8599 271.73 73.8499C274.22 74.3599 275.96 75.6049 276.95 77.5849C277.97 79.5349 278.48 82.0699 278.48 85.1899V115.16H262.865V84.1549C262.865 81.8449 262.385 80.4199 261.425 79.8799C260.495 79.3099 258.98 79.0249 256.88 79.0249V115.16H240.86ZM256.97 65.2999H260.795C262.985 65.2999 264.08 62.9149 264.08 58.1449C264.08 55.0549 263.84 53.0299 263.36 52.0699C262.88 51.1099 261.98 50.6299 260.66 50.6299H256.97V65.2999ZM282.62 115.16L290.27 35.9599H317.135L324.65 115.16H309.665L308.54 102.38H299L298.01 115.16H282.62ZM300.125 89.7349H307.325L303.86 49.4599H303.14L300.125 89.7349Z" fill="#E6E6DD"/>
<rect x="48.0799" y="35.6799" width="41.04" height="79.2" fill="#E6E6DD"/>
<path d="M87.2921 108.526L48.9297 108.622L48.9111 101.211L87.2735 101.115L87.2921 108.526ZM87.2613 96.2779L48.8989 96.3743L48.8791 88.4839L67.2449 84.9066L48.8702 84.9528L48.8515 77.5419L87.2139 77.4454L87.2328 84.9435L68.0612 88.828L87.2424 88.7797L87.2613 96.2779ZM87.2009 72.2595L48.8385 72.356L48.812 61.8063C48.805 59.0454 49.57 56.9655 51.1068 55.5666C52.629 54.1678 54.8651 53.4647 57.8149 53.4573L75.7755 53.4121C79.4083 53.403 82.2144 54.0353 84.1939 55.3091C86.1733 56.5683 87.167 58.7891 87.175 61.9714L87.2009 72.2595ZM80.4027 64.5605L80.3993 63.2309C80.3958 61.8214 79.711 61.1183 78.3451 61.1217L58.5536 61.1715C57.2749 61.1747 56.4543 61.3512 56.0919 61.7008C55.7149 62.036 55.5277 62.7267 55.5304 63.773L55.5325 64.623L80.4027 64.5605ZM87.1419 48.8079L48.7795 48.9044L48.7609 41.4935L87.1233 41.397L87.1419 48.8079Z" fill="#2A2929"/>
</svg>
