<svg width="514" height="210" viewBox="0 0 514 210" fill="none" xmlns="http://www.w3.org/2000/svg">
<rect x="2.5" y="2.5" width="509" height="205" stroke="#E3E1DE" stroke-width="5"/>
<path d="M134.875 159V49H168.375L177.625 116.062L186.812 49H220.625V159H200.5V79.75L187.875 159H168.125L154.75 79.75V159H134.875ZM230.375 159V49H274.375V70.25H252.75V91.6875H273.5V112.375H252.75V137.562H275.812V159H230.375ZM292.562 159V70.125H279.5V49H327.625V70.125H314.562V159H292.562ZM333.75 159V49H367.5C373.125 49 377.375 50.2917 380.25 52.875C383.125 55.4167 385.041 59 386 63.625C387 68.2083 387.5 73.6042 387.5 79.8125C387.5 85.8125 386.729 90.6042 385.187 94.1875C383.687 97.7708 380.833 100.25 376.625 101.625C380.083 102.333 382.5 104.062 383.875 106.812C385.291 109.521 386 113.042 386 117.375V159H364.312V115.938C364.312 112.729 363.646 110.75 362.312 110C361.021 109.208 358.916 108.812 356 108.812V159H333.75ZM356.125 89.75H361.437C364.479 89.75 366 86.4375 366 79.8125C366 75.5208 365.666 72.7083 365 71.375C364.333 70.0417 363.083 69.375 361.25 69.375H356.125V89.75ZM391.75 159L402.375 49H439.687L450.125 159H429.312L427.75 141.25H414.5L413.125 159H391.75ZM416.062 123.688H426.062L421.25 67.75H420.25L416.062 123.688Z" fill="#E3E1DE"/>
<rect x="65.9998" y="49" width="57" height="110" fill="#E3E1DE"/>
<path d="M121.239 150.173L67.9579 150.307L67.932 140.014L121.213 139.88L121.239 150.173ZM121.196 133.162L67.9151 133.296L67.8876 122.337L93.3957 117.368L67.8752 117.433L67.8494 107.14L121.13 107.006L121.157 117.42L94.5295 122.815L121.17 122.748L121.196 133.162ZM121.112 99.8031L67.8312 99.937L67.7944 85.2848C67.7848 81.4501 68.8472 78.5614 70.9816 76.6185C73.0959 74.6757 76.2015 73.6991 80.2985 73.6888L105.244 73.6261C110.289 73.6134 114.187 74.4916 116.936 76.2607C119.685 78.0097 121.065 81.0941 121.076 85.514L121.112 99.8031ZM111.67 89.11L111.666 87.2633C111.661 85.3056 110.71 84.3292 108.813 84.3339L81.3245 84.4031C79.5484 84.4075 78.4087 84.6526 77.9054 85.1382C77.3818 85.6037 77.1219 86.5631 77.1255 88.0162L77.1285 89.1968L111.67 89.11ZM121.03 67.2314L67.7493 67.3654L67.7234 57.0724L121.005 56.9384L121.03 67.2314Z" fill="#2A2929"/>
</svg>
