<svg width="32" height="32" viewBox="0 0 32 32" fill="none" xmlns="http://www.w3.org/2000/svg">
<path fill-rule="evenodd" clip-rule="evenodd" d="M18.6667 7.99996H3.99999C3.26361 7.99996 2.66666 7.40301 2.66666 6.66663C2.66666 5.93025 3.26361 5.33329 3.99999 5.33329H18.6667C18.6667 3.86053 19.8606 2.66663 21.3333 2.66663H24C25.4727 2.66663 26.6667 3.86053 26.6667 5.33329H28C28.7364 5.33329 29.3333 5.93025 29.3333 6.66663C29.3333 7.40301 28.7364 7.99996 28 7.99996H26.6667C26.6667 9.47272 25.4727 10.6666 24 10.6666H21.3333C19.8606 10.6666 18.6667 9.47272 18.6667 7.99996ZM24 5.33329H21.3333V7.99996H24V6.66663V5.33329ZM28 14.6666H16C16 13.1939 14.8061 12 13.3333 12H10.6667C9.1939 12 7.99999 13.1939 7.99999 14.6666H3.99999C3.26361 14.6666 2.66666 15.2636 2.66666 16C2.66666 16.7363 3.26361 17.3333 3.99999 17.3333H7.99999C7.99999 18.8061 9.1939 20 10.6667 20H13.3333C14.8061 20 16 18.8061 16 17.3333H28C28.7364 17.3333 29.3333 16.7363 29.3333 16C29.3333 15.2636 28.7364 14.6666 28 14.6666ZM10.6667 14.6666V17.3333H13.3333V16V14.6666H10.6667ZM28 24H24C24 22.5272 22.8061 21.3333 21.3333 21.3333H18.6667C17.1939 21.3333 16 22.5272 16 24H3.99999C3.26361 24 2.66666 24.5969 2.66666 25.3333C2.66666 26.0697 3.26361 26.6666 3.99999 26.6666H16C16 28.1394 17.1939 29.3333 18.6667 29.3333H21.3333C22.8061 29.3333 24 28.1394 24 26.6666H28C28.7364 26.6666 29.3333 26.0697 29.3333 25.3333C29.3333 24.5969 28.7364 24 28 24ZM18.6667 24V26.6666H21.3333V25.3333V24H18.6667Z" fill="#E3E1DE"/>
</svg>
