<svg width="32" height="32" viewBox="0 0 32 32" fill="none" xmlns="http://www.w3.org/2000/svg">
<path d="M27.16 14.7467L16.8934 25.0133C15.2833 26.6559 13.133 27.66 10.84 27.84H10.2534C8.25812 27.8629 6.337 27.0849 4.92002 25.68C1.80002 22.56 2.10669 17.1733 5.60002 13.68L14.8 4.48001C15.3201 3.96304 16.16 3.96304 16.68 4.48001C16.9324 4.73036 17.0744 5.07116 17.0744 5.42668C17.0744 5.78219 16.9324 6.12299 16.68 6.37334L7.46669 15.5867C5.00002 18.04 4.69336 21.7333 6.77336 23.8133C7.81272 24.7985 9.228 25.2848 10.6534 25.1467C12.3026 25.0095 13.8466 24.2802 15 23.0933L25.3334 12.8667C26.8807 11.5522 27.0939 9.24217 25.8134 7.66668C24.2422 6.38762 21.9364 6.60101 20.6267 8.14668L10.36 18.4133C10.0244 18.7391 9.81627 19.1742 9.77336 19.64C9.73595 19.9808 9.84777 20.3211 10.08 20.5733C10.7589 21.0632 11.7007 20.947 12.24 20.3067L23.0534 9.49334C23.5734 8.97638 24.4133 8.97638 24.9334 9.49334C25.1858 9.7437 25.3278 10.0845 25.3278 10.44C25.3278 10.7955 25.1858 11.1363 24.9334 11.3867L14.1334 22.1867C12.5689 23.8954 9.91843 24.0204 8.20002 22.4667C6.64282 20.7518 6.76193 18.1016 8.46669 16.5333L18.6667 6.26668C21.0203 3.67358 25.0232 3.45946 27.64 5.78668C29.9657 8.39908 29.7515 12.3977 27.16 14.7467Z" fill="#E3E1DE"/>
</svg>
