<svg width="32" height="32" viewBox="0 0 32 32" fill="none" xmlns="http://www.w3.org/2000/svg">
<path fill-rule="evenodd" clip-rule="evenodd" d="M9.33334 2.7467H22.6667C24.9223 2.79771 26.7113 4.66428 26.6667 6.92004V26.4934C26.6723 27.5811 26.0414 28.5717 25.0533 29.0267C24.7166 29.1731 24.3538 29.2502 23.9867 29.2534C23.3381 29.2494 22.7147 29.002 22.24 28.56L16 22.88L9.76 28.56C8.99115 29.2461 7.89585 29.4278 6.94667 29.0267C5.95861 28.5717 5.32776 27.5811 5.33334 26.4934V6.92004C5.28867 4.66428 7.07771 2.79771 9.33334 2.7467ZM17.7733 20.9067L24 26.5867V6.92004C24.0383 6.13913 23.4464 5.47035 22.6667 5.41337H9.33334C8.55357 5.47035 7.96173 6.13913 8.00001 6.92004V26.4934L14.1733 20.9067C15.1923 19.9745 16.7544 19.9745 17.7733 20.9067Z" fill="currentColor"/>
</svg>
