<svg width="32" height="32" viewBox="0 0 32 32" fill="none" xmlns="http://www.w3.org/2000/svg">
<path fill-rule="evenodd" clip-rule="evenodd" d="M4 5.33329H28C28.7364 5.33329 29.3333 4.73634 29.3333 3.99996C29.3333 3.26358 28.7364 2.66663 28 2.66663H4C3.26362 2.66663 2.66667 3.26358 2.66667 3.99996C2.66667 4.73634 3.26362 5.33329 4 5.33329ZM29.3333 26.6666C29.3333 27.403 28.7364 28 28 28H4C3.26362 28 2.66667 27.403 2.66667 26.6666C2.66667 25.9302 3.26362 25.3333 4 25.3333H28C28.7364 25.3333 29.3333 25.9302 29.3333 26.6666ZM4 14.6666H28C28.7364 14.6666 29.3333 15.2636 29.3333 16C29.3333 16.7363 28.7364 17.3333 28 17.3333H4C3.26362 17.3333 2.66667 16.7363 2.66667 16C2.66667 15.2636 3.26362 14.6666 4 14.6666Z" fill="#E3E1DE"/>
</svg>
