<svg width="32" height="32" viewBox="0 0 32 32" fill="none" xmlns="http://www.w3.org/2000/svg">
<path fill-rule="evenodd" clip-rule="evenodd" d="M22.0533 8H25.3333C27.5425 8 29.3333 9.79086 29.3333 12V22.6667C29.3333 24.8758 27.5425 26.6667 25.3333 26.6667H6.66666C4.45752 26.6667 2.66666 24.8758 2.66666 22.6667V12C2.66666 9.79086 4.45752 8 6.66666 8H9.94666L11.4267 5.78667C12.1683 4.67028 13.4197 3.9995 14.76 4H17.24C18.5803 3.9995 19.8317 4.67028 20.5733 5.78667L22.0533 8ZM25.3333 24C26.0697 24 26.6667 23.403 26.6667 22.6667V12C26.6667 11.2636 26.0697 10.6667 25.3333 10.6667H21.3333C20.8873 10.6644 20.472 10.4392 20.2267 10.0667L18.3467 7.26667C18.1013 6.89415 17.686 6.66897 17.24 6.66667H14.76C14.314 6.66897 13.8986 6.89415 13.6533 7.26667L11.7733 10.0667C11.528 10.4392 11.1127 10.6644 10.6667 10.6667H6.66666C5.93028 10.6667 5.33332 11.2636 5.33332 12V22.6667C5.33332 23.403 5.93028 24 6.66666 24H25.3333ZM16 12C13.0545 12 10.6667 14.3878 10.6667 17.3333C10.6667 20.2789 13.0545 22.6667 16 22.6667C18.9455 22.6667 21.3333 20.2789 21.3333 17.3333C21.3333 15.9188 20.7714 14.5623 19.7712 13.5621C18.771 12.5619 17.4145 12 16 12ZM13.3333 17.3333C13.3333 18.8061 14.5272 20 16 20C17.4727 20 18.6667 18.8061 18.6667 17.3333C18.6667 15.8606 17.4727 14.6667 16 14.6667C14.5272 14.6667 13.3333 15.8606 13.3333 17.3333Z" fill="#E3E1DE"/>
</svg>
