<svg width="32" height="32" viewBox="0 0 32 32" fill="none" xmlns="http://www.w3.org/2000/svg">
<path fill-rule="evenodd" clip-rule="evenodd" d="M25.3333 2.66663H6.66666C4.45752 2.66663 2.66666 4.45749 2.66666 6.66663V25.3333C2.66666 27.5424 4.45752 29.3333 6.66666 29.3333H25.3333C27.5425 29.3333 29.3333 27.5424 29.3333 25.3333V6.66663C29.3333 4.45749 27.5425 2.66663 25.3333 2.66663ZM26.6667 25.3333C26.6667 26.0697 26.0697 26.6666 25.3333 26.6666H6.66666C5.93028 26.6666 5.33332 26.0697 5.33332 25.3333V6.66663C5.33332 5.93025 5.93028 5.33329 6.66666 5.33329H25.3333C26.0697 5.33329 26.6667 5.93025 26.6667 6.66663V25.3333ZM23.56 11.5866C24.077 11.0666 24.077 10.2267 23.56 9.70663C23.2991 9.46449 22.9523 9.3367 22.5966 9.35173C22.241 9.36675 21.9062 9.52334 21.6667 9.78663L12.6933 19.3333L10.3467 16.84C10.0307 16.4534 9.52531 16.2757 9.03699 16.3796C8.54866 16.4834 8.15926 16.8513 8.02791 17.333C7.89657 17.8146 8.0453 18.3293 8.41332 18.6666L11.6667 22.1733C11.9203 22.4393 12.2724 22.5889 12.64 22.5866C13.0075 22.5889 13.3597 22.4393 13.6133 22.1733L23.56 11.5866Z" fill="#E3E1DE"/>
</svg>
