<svg width="32" height="32" viewBox="0 0 32 32" fill="none" xmlns="http://www.w3.org/2000/svg">
<path fill-rule="evenodd" clip-rule="evenodd" d="M6.66667 2.66663H25.3333C27.5425 2.66663 29.3333 4.45749 29.3333 6.66663V20C29.3333 22.2091 27.5425 24 25.3333 24H24V28C23.9973 28.5382 23.6712 29.0221 23.1733 29.2266C23.0151 29.3013 22.8416 29.3378 22.6667 29.3333C22.3123 29.3353 21.9716 29.1962 21.72 28.9466L16.7867 24H6.66667C4.45753 24 2.66667 22.2091 2.66667 20V6.66663C2.66667 4.45749 4.45753 2.66663 6.66667 2.66663ZM25.3333 21.3333C26.0697 21.3333 26.6667 20.7363 26.6667 20V6.66663C26.6667 5.93025 26.0697 5.33329 25.3333 5.33329H6.66667C5.93029 5.33329 5.33333 5.93025 5.33333 6.66663V20C5.33333 20.7363 5.93029 21.3333 6.66667 21.3333H17.3333C17.6877 21.3312 18.0284 21.4704 18.28 21.72L21.3333 24.7866V22.6666C21.3333 21.9302 21.9303 21.3333 22.6667 21.3333H25.3333Z" fill="currentColor"/>
</svg>
