<svg width="32" height="32" viewBox="0 0 32 32" fill="none" xmlns="http://www.w3.org/2000/svg">
<path fill-rule="evenodd" clip-rule="evenodd" d="M12.4533 25.2L28.0933 9.55997C29.1635 8.5628 29.604 7.06101 29.2421 5.64377C28.8801 4.22652 27.7735 3.11986 26.3562 2.75792C24.939 2.39598 23.4372 2.83649 22.44 3.90664L6.76001 19.5866C6.65972 19.6897 6.57444 19.8064 6.50667 19.9333L2.80001 27.4133C2.59731 27.827 2.62252 28.316 2.86667 28.7066C3.11083 29.0973 3.53934 29.3342 4.00001 29.3333C4.22 29.3281 4.43529 29.2686 4.62667 29.16L12.1067 25.4533C12.2335 25.3855 12.3502 25.3003 12.4533 25.2ZM28 29.3333C28.7364 29.3333 29.3333 28.7364 29.3333 28C29.3333 27.2636 28.7364 26.6666 28 26.6666H16C15.2636 26.6666 14.6667 27.2636 14.6667 28C14.6667 28.7364 15.2636 29.3333 16 29.3333H28ZM21.76 12.12L19.88 10.24L8.84001 21.3333L6.98667 25.0666L10.6667 23.16L21.76 12.12ZM25.2867 5.33164C25.6522 5.33164 26.0016 5.48167 26.2533 5.74664C26.5132 6.00381 26.656 6.35639 26.6485 6.7219C26.6409 7.08741 26.4836 7.43377 26.2133 7.67997L23.64 10.24L21.76 8.35997L24.32 5.74664C24.5717 5.48167 24.9212 5.33164 25.2867 5.33164Z" fill="#E3E1DE"/>
</svg>
