<svg width="32" height="32" viewBox="0 0 32 32" fill="none" xmlns="http://www.w3.org/2000/svg">
<path fill-rule="evenodd" clip-rule="evenodd" d="M28.6533 7.09338C27.9082 5.99106 26.6638 5.33137 25.3333 5.33338H6.66666C4.45752 5.33338 2.66666 7.12424 2.66666 9.33338V22.6667C2.66666 24.8759 4.45752 26.6667 6.66666 26.6667H25.3333C27.5425 26.6667 29.3333 24.8759 29.3333 22.6667V9.33338C29.3351 8.53561 29.0983 7.75553 28.6533 7.09338ZM6.66666 8.00005H25.3333C25.7163 8.00053 26.0806 8.16567 26.3333 8.45338L16 14.4934L5.67999 8.44005C5.93207 8.16074 6.29042 8.00093 6.66666 8.00005ZM25.3333 24C26.0697 24 26.6667 23.4031 26.6667 22.6667V11.32L17.3333 16.7867C16.9282 17.0217 16.4683 17.1459 16 17.1467C15.5329 17.1499 15.0731 17.0304 14.6667 16.8L5.33332 11.32V22.6667C5.33332 23.4031 5.93028 24 6.66666 24H25.3333Z" fill="#E3E1DE"/>
</svg>
