<svg width="48" height="48" viewBox="0 0 48 48" fill="none" xmlns="http://www.w3.org/2000/svg">
<path fill-rule="evenodd" clip-rule="evenodd" d="M10.0956 11.4838C10.0956 7.3506 13.4462 4 17.5794 4H30.4207C34.5538 4 37.9045 7.3506 37.9045 11.4838C37.9045 14.101 36.561 16.4043 34.5261 17.742C36.561 19.0796 37.9045 21.383 37.9045 24.0001C37.9045 28.1333 34.5539 31.4839 30.4207 31.4839H30.2581C28.3204 31.4839 26.5548 30.7475 25.2257 29.5394V36.4349C25.2257 40.6232 21.7875 44 17.6197 44C13.4968 44 10.0956 40.6596 10.0956 36.5162C10.0956 33.8991 11.4389 31.5958 13.4736 30.2582C11.4389 28.9205 10.0956 26.6172 10.0956 24.0001C10.0956 21.383 11.439 19.0796 13.4739 17.742C11.439 16.4043 10.0956 14.101 10.0956 11.4838ZM22.7743 29.0324H17.5794L17.5497 29.0325C14.784 29.0165 12.5469 26.7696 12.5469 24.0001C12.5469 21.2208 14.8 18.9677 17.5794 18.9677H22.7743V29.0324ZM25.2257 24.0033C25.2274 26.7812 27.4798 29.0326 30.2581 29.0326H30.4207C33.2 29.0326 35.4531 26.7795 35.4531 24.0001C35.4531 21.2208 33.2 18.9677 30.4207 18.9677H30.2581C27.4798 18.9677 25.2274 21.2191 25.2257 23.997V24.0033ZM17.5794 31.4839L17.5499 31.4839C14.7841 31.4997 12.5469 33.7467 12.5469 36.5162C12.5469 39.2853 14.8301 41.5486 17.6197 41.5486C20.4542 41.5486 22.7743 39.2489 22.7743 36.4349V31.4839H17.5794ZM17.5794 6.45139H22.7743V16.5162H17.5794C14.8 16.5162 12.5469 14.2631 12.5469 11.4838C12.5469 8.70447 14.8 6.45139 17.5794 6.45139ZM25.2257 16.5162V6.45139H30.4207C33.2 6.45139 35.4531 8.70447 35.4531 11.4838C35.4531 14.2631 33.2 16.5162 30.4207 16.5162H25.2257Z" fill="#E3E1DE"/>
</svg>
