<svg width="32" height="32" viewBox="0 0 32 32" fill="none" xmlns="http://www.w3.org/2000/svg">
<path fill-rule="evenodd" clip-rule="evenodd" d="M26.6667 10.3199L28.88 12.3333C29.4316 12.8196 29.4853 13.6607 29 14.2133C28.5137 14.7649 27.6725 14.8186 27.12 14.3333L26.6667 13.9333V25.3333C26.6667 27.5424 24.8758 29.3333 22.6667 29.3333H18.6667C17.9303 29.3333 17.3333 28.7363 17.3333 27.9999V21.3333C17.339 20.986 17.1987 20.6523 16.9467 20.4133C16.6995 20.1539 16.3583 20.0049 16 19.9999C15.2636 19.9999 14.6667 20.5969 14.6667 21.3333V27.9999C14.6667 28.7363 14.0697 29.3333 13.3333 29.3333H9.33334C7.1242 29.3333 5.33334 27.5424 5.33334 25.3333V13.9333L4.88001 14.3333C4.32412 14.781 3.51423 14.7116 3.04269 14.1757C2.57114 13.6399 2.60523 12.8277 3.12001 12.3333L5.33334 10.3199L6.46667 9.33327L15.12 1.66661C15.6233 1.22441 16.3767 1.22441 16.88 1.66661L25.5333 9.33327L26.6667 10.3199ZM22.6667 26.6666C23.4031 26.6666 24 26.0697 24 25.3333V11.5599L16 4.45327L8.00001 11.5599V25.3333C8.00001 26.0697 8.59696 26.6666 9.33334 26.6666H12V21.3333C12 19.1241 13.7909 17.3333 16 17.3333C18.2091 17.3333 20 19.1241 20 21.3333V26.6666H22.6667Z" fill="#E3E1DE"/>
</svg>
