<svg width="32" height="32" viewBox="0 0 32 32" fill="none" xmlns="http://www.w3.org/2000/svg">
<path fill-rule="evenodd" clip-rule="evenodd" d="M6.66666 2.66663H25.3333C27.5425 2.66663 29.3333 4.45749 29.3333 6.66663V25.3333C29.3333 27.5424 27.5425 29.3333 25.3333 29.3333H6.66666C4.45752 29.3333 2.66666 27.5424 2.66666 25.3333V6.66663C2.66666 4.45749 4.45752 2.66663 6.66666 2.66663ZM6.66666 26.6666H25.3333C25.8493 26.6627 26.3166 26.3615 26.5333 25.8933L12.2 15.16L5.33332 23.16V25.3333C5.33332 26.0697 5.93028 26.6666 6.66666 26.6666ZM26.6667 22.6666L18.6667 16.6133L21.4933 13.7866L26.6667 17.9733V22.6666ZM22.16 10.96L26.6667 14.56V6.66663C26.6667 5.93025 26.0697 5.33329 25.3333 5.33329H6.66666C5.93028 5.33329 5.33332 5.93025 5.33332 6.66663V19.0666L10.9867 12.4666C11.4438 11.9322 12.2374 11.8446 12.8 12.2666L16.3867 15.0533L20.3867 11.0533C20.8681 10.5758 21.6311 10.5357 22.16 10.96Z" fill="#E3E1DE"/>
</svg>
