<svg width="32" height="32" viewBox="0 0 32 32" fill="none" xmlns="http://www.w3.org/2000/svg">
<path fill-rule="evenodd" clip-rule="evenodd" d="M29.3333 25.3333V6.66663C29.3333 4.45749 27.5425 2.66663 25.3333 2.66663H6.66666C4.45752 2.66663 2.66666 4.45749 2.66666 6.66663V25.3333C2.66666 27.5424 4.45752 29.3333 6.66666 29.3333H25.3333C27.5425 29.3333 29.3333 27.5424 29.3333 25.3333ZM14.6589 9.33329C14.6589 9.68881 14.8009 10.0296 15.0533 10.28C15.4348 10.6646 16.011 10.7802 16.5113 10.5725C17.0116 10.3647 17.3365 9.87498 17.3333 9.33329C17.3365 8.79161 17.0116 8.30185 16.5113 8.09413C16.011 7.88641 15.4348 8.00201 15.0533 8.38663C14.8009 8.63698 14.6589 8.97778 14.6589 9.33329ZM26.6667 6.66663C26.6667 5.93025 26.0697 5.33329 25.3333 5.33329H6.66666C5.93028 5.33329 5.33332 5.93025 5.33332 6.66663V25.3333C5.33332 26.0697 5.93028 26.6666 6.66666 26.6666H25.3333C26.0697 26.6666 26.6667 26.0697 26.6667 25.3333V6.66663ZM17.3333 21.3333H17.52C18.2564 21.3333 18.8533 21.9302 18.8533 22.6666C18.8533 23.403 18.2564 24 17.52 24H14.48C13.7436 24 13.1467 23.403 13.1467 22.6666C13.1467 21.9302 13.7436 21.3333 14.48 21.3333H14.6667V14.6666C13.9303 14.6666 13.3333 14.0697 13.3333 13.3333C13.3333 12.5969 13.9303 12 14.6667 12H16C16.7364 12 17.3333 12.5969 17.3333 13.3333V21.3333Z" fill="#E3E1DE"/>
</svg>
