<svg width="32" height="32" viewBox="0 0 32 32" fill="none" xmlns="http://www.w3.org/2000/svg">
<path fill-rule="evenodd" clip-rule="evenodd" d="M16 2.66663C21.1547 2.66663 25.3333 6.8453 25.3333 12C25.52 16.1733 22.1733 21.7333 17.08 28.7733C16.8293 29.1196 16.4276 29.3247 16 29.3247C15.5724 29.3247 15.1708 29.1196 14.92 28.7733C9.82667 21.72 6.48 16.16 6.66667 12C6.66667 6.8453 10.8453 2.66663 16 2.66663ZM16 25.7466C19.56 20.7066 22.8533 15.3866 22.6667 12.12V12.08V12C22.6667 8.31806 19.6819 5.33329 16 5.33329C12.3181 5.33329 9.33334 8.31806 9.33334 12V12.08C9.14667 15.3466 12.44 20.6666 16 25.7466ZM16 7.99996C13.7909 7.99996 12 9.79082 12 12C12 14.2091 13.7909 16 16 16C18.2091 16 20 14.2091 20 12C20 10.9391 19.5786 9.92168 18.8284 9.17153C18.0783 8.42139 17.0609 7.99996 16 7.99996ZM14.6667 12C14.6667 12.7363 15.2636 13.3333 16 13.3333C16.7364 13.3333 17.3333 12.7363 17.3333 12C17.3333 11.2636 16.7364 10.6666 16 10.6666C15.2636 10.6666 14.6667 11.2636 14.6667 12Z" fill="#E3E1DE"/>
</svg>
