<svg width="32" height="32" viewBox="0 0 32 32" fill="none" xmlns="http://www.w3.org/2000/svg">
<path fill-rule="evenodd" clip-rule="evenodd" d="M25.3333 14.6666V12C25.3333 6.8453 21.1546 2.66663 16 2.66663C10.8453 2.66663 6.66666 6.8453 6.66666 12V14.6666C4.45752 14.6666 2.66666 16.4575 2.66666 18.6666V25.3333C2.66666 27.5424 4.45752 29.3333 6.66666 29.3333H25.3333C27.5425 29.3333 29.3333 27.5424 29.3333 25.3333V18.6666C29.3333 16.4575 27.5425 14.6666 25.3333 14.6666ZM9.33332 12C9.33332 8.31806 12.3181 5.33329 16 5.33329C19.6819 5.33329 22.6667 8.31806 22.6667 12V14.6666H9.33332V12ZM25.3333 26.6666C26.0697 26.6666 26.6667 26.0697 26.6667 25.3333V18.6666C26.6667 17.9302 26.0697 17.3333 25.3333 17.3333H6.66666C5.93028 17.3333 5.33332 17.9302 5.33332 18.6666V25.3333C5.33332 26.0697 5.93028 26.6666 6.66666 26.6666H25.3333Z" fill="#E3E1DE"/>
</svg>
