<svg width="48" height="48" viewBox="0 0 48 48" fill="none" xmlns="http://www.w3.org/2000/svg">
<path d="M26.9445 1.1882C39.5208 2.7976 48.4212 14.317 46.8119 26.9197C45.1787 39.522 33.6576 48.4211 21.0561 46.8119C8.47855 45.1787 -0.421491 33.6341 1.1882 21.0555C2.79745 8.48037 14.364 -0.421737 26.9445 1.1882Z" stroke="#E3E1DE" stroke-width="2"/>
<path d="M32.6624 15.4096L22.5363 25.5358L19.6808 22.6803C29.639 12.7221 30.6228 13.5859 32.6624 15.4096Z" fill="#E3E1DE"/>
<path d="M22.5363 25.7757C22.4643 25.7757 22.4163 25.7517 22.3683 25.7037L19.4889 22.8482C19.3929 22.7523 19.3929 22.6083 19.4889 22.5123C29.615 12.3861 30.6708 13.346 32.8065 15.2656C32.8544 15.3136 32.8784 15.3616 32.8784 15.4336C32.8784 15.5056 32.8544 15.5536 32.8065 15.6016L22.6803 25.7037C22.6563 25.7517 22.5843 25.7757 22.5363 25.7757ZM20.0168 22.6803L22.5363 25.1998L32.3025 15.4336C30.5269 13.8499 29.3271 13.37 20.0168 22.6803Z" fill="#393533"/>
<path d="M25.4398 28.4393L22.6803 25.6798L32.8065 15.5536C35.518 18.2891 31.4627 22.7283 25.4398 28.4393Z" fill="#E3E1DE"/>
<path d="M25.4398 28.6792C25.3678 28.6792 25.3198 28.6552 25.2719 28.6072L22.5123 25.8477C22.4644 25.7997 22.4644 25.7517 22.4644 25.6797C22.4644 25.6077 22.4884 25.5598 22.5363 25.5118L32.6625 15.3856C32.7585 15.2896 32.9025 15.2896 32.9985 15.3856C33.6223 15.9615 33.9583 16.7773 33.9343 17.6172C33.8863 20.2807 30.8628 23.6641 25.6318 28.6072C25.5598 28.6552 25.4878 28.6792 25.4398 28.6792ZM23.0163 25.6797C24.552 27.2394 25.1999 27.8633 25.4398 28.1033C29.4711 24.264 33.3824 20.3287 33.4064 17.6172C33.4304 16.9933 33.1904 16.3694 32.7825 15.8895L23.0163 25.6797Z" fill="#393533"/>
<path d="M19.7288 22.7522L21.7684 24.7919C21.8164 24.8399 21.8164 24.8878 21.7684 24.9358C21.7444 24.9598 21.7444 24.9598 21.7204 24.9598L17.4972 25.8717C17.2812 25.8957 17.0893 25.7517 17.0413 25.5357C17.0173 25.4158 17.0653 25.2958 17.1373 25.2238L19.5848 22.7762C19.6328 22.7282 19.7048 22.7042 19.7288 22.7522Z" fill="#E3E1DE"/>
<path d="M17.4252 26.1117C17.0652 26.1117 16.8013 25.8237 16.8013 25.4638C16.8013 25.2958 16.8733 25.1279 16.9932 25.0079L19.4408 22.5603C19.5848 22.4403 19.7767 22.4403 19.9207 22.5603L21.9603 24.6C22.1043 24.7199 22.1043 24.9359 21.9603 25.0799C21.9123 25.1279 21.8644 25.1519 21.7924 25.1758L17.5691 26.0877C17.5211 26.0877 17.4731 26.1117 17.4252 26.1117ZM19.6568 23.0162L17.3052 25.3678C17.2572 25.4158 17.2332 25.4878 17.2812 25.5598C17.3052 25.6318 17.3772 25.6558 17.4492 25.6318L21.4084 24.7679L19.6568 23.0162Z" fill="#393533"/>
<path d="M38.0135 9.79461C36.4778 8.30688 34.0062 8.35487 32.5185 9.91459C31.0308 11.4743 31.0787 13.9219 32.6385 15.4096C33.9102 16.6334 35.8299 16.8493 37.3416 15.9375L34.6061 13.202L38.0135 9.79461Z" fill="#E3E1DE"/>
<path d="M35.326 16.7294C33.0464 16.7294 31.1987 14.8817 31.1987 12.6021C31.1987 10.3225 33.0464 8.47485 35.326 8.47485C36.3818 8.47485 37.4136 8.88278 38.1814 9.62665C38.2294 9.67464 38.2534 9.72263 38.2534 9.79462C38.2534 9.8666 38.2294 9.91459 38.1814 9.96259L34.942 13.202L37.4856 15.7455C37.5815 15.8415 37.5815 15.9855 37.4856 16.0815C37.4616 16.1055 37.4616 16.1055 37.4376 16.1295C36.8137 16.5134 36.0698 16.7294 35.326 16.7294ZM35.326 8.97876C33.3103 8.97876 31.6786 10.6105 31.7026 12.6261C31.7026 14.6417 33.3343 16.2734 35.35 16.2495C35.9019 16.2495 36.4538 16.1295 36.9577 15.8655L34.4381 13.37C34.3901 13.322 34.3661 13.274 34.3661 13.202C34.3661 13.13 34.3901 13.082 34.4381 13.034L37.6535 9.81861C37.0057 9.26671 36.1898 8.97876 35.326 8.97876Z" fill="#393533"/>
<path d="M38.0855 9.86659L38.0375 9.8186L34.6061 13.202L37.3176 15.9135C37.5815 15.7455 37.8455 15.5536 38.0615 15.3376C39.5972 13.8259 39.5972 11.3783 38.0855 9.86659Z" fill="#E3E1DE"/>
<path d="M37.3417 16.1775C37.2697 16.1775 37.2217 16.1535 37.1737 16.1055L34.4382 13.37C34.3902 13.322 34.3662 13.274 34.3662 13.202C34.3662 13.13 34.3902 13.0821 34.4382 13.0341L37.8456 9.62667C37.9416 9.53069 38.0855 9.53069 38.1815 9.62667L38.2535 9.67467C39.8612 11.2824 39.8612 13.8739 38.2775 15.5056C38.0375 15.7456 37.7736 15.9615 37.4856 16.1295C37.4137 16.1535 37.3657 16.1775 37.3417 16.1775ZM34.9421 13.202L37.3657 15.6256C37.5576 15.5056 37.7496 15.3376 37.8936 15.1937C39.2613 13.8259 39.3333 11.5943 38.0136 10.1546L34.9421 13.202Z" fill="#393533"/>
<path d="M33.0704 15.8416C32.4945 15.2657 31.5587 15.2657 30.9828 15.8416L21.9364 24.888L23.4481 26.3997L33.0224 18.0012C33.6463 17.4733 33.6943 16.5375 33.1664 15.9136C33.1184 15.8896 33.0944 15.8656 33.0704 15.8416Z" fill="#E3E1DE"/>
<path d="M23.4242 26.6396C23.3522 26.6396 23.3042 26.6156 23.2562 26.5676L21.7445 25.0559C21.6485 24.9599 21.6485 24.8159 21.7445 24.72L30.7908 15.6736C31.4627 15.0017 32.5425 15.0017 33.2144 15.6736C33.8863 16.3455 33.8863 17.4253 33.2144 18.0972C33.1904 18.1211 33.1664 18.1451 33.1424 18.1691L23.5681 26.5676C23.5441 26.6156 23.4962 26.6396 23.4242 26.6396ZM22.2724 24.8879L23.4482 26.0637L32.8545 17.8092C33.3824 17.3773 33.4304 16.5854 32.9984 16.0575C32.5665 15.5296 31.7747 15.4816 31.2468 15.9135C31.2228 15.9375 31.1988 15.9615 31.1508 15.9855L22.2724 24.8879Z" fill="#393533"/>
<path d="M15.0016 35.182C14.9056 35.23 14.8576 35.326 14.8816 35.422L15.2896 37.1497C15.3855 37.3896 15.2416 37.6776 14.9776 37.7496C14.7856 37.8215 14.5697 37.7496 14.4497 37.6056L11.8102 34.9901L20.4246 26.3756L23.4001 26.4236L25.4157 28.4392C24.9358 28.8472 22.0323 31.6547 15.0016 35.182Z" fill="#E3E1DE"/>
<path d="M14.8097 37.9895C14.6177 37.9895 14.4258 37.9175 14.3058 37.7735L11.6903 35.158C11.6423 35.11 11.6183 35.062 11.6183 34.99C11.6183 34.918 11.6423 34.87 11.6903 34.8221L20.3047 26.2076C20.3527 26.1596 20.4247 26.1356 20.4727 26.1356L23.4482 26.1836C23.5201 26.1836 23.5681 26.2076 23.6161 26.2556L25.6318 28.2712C25.6798 28.3192 25.7037 28.3912 25.7037 28.4632C25.7037 28.5352 25.6798 28.5832 25.6078 28.6312L25.4398 28.7751C22.8963 31.0067 19.4409 33.2383 15.1457 35.374L15.5536 37.0776C15.6256 37.3896 15.4816 37.7255 15.1936 37.8935C15.0497 37.9655 14.9297 37.9895 14.8097 37.9895ZM12.1702 34.99L14.6417 37.4376C14.7137 37.5576 14.8577 37.6056 14.9777 37.5336C15.0977 37.4616 15.1457 37.3176 15.0737 37.1976L14.6657 35.4699C14.6177 35.254 14.7137 35.062 14.9057 34.966C19.1529 32.8304 22.5843 30.6228 25.1039 28.4392L23.3282 26.6635L20.5687 26.6155L12.1702 34.99Z" fill="#393533"/>
<path d="M9.77059 37.0537L11.8342 34.9901L14.9057 38.0616L10.0105 37.7256C9.79458 37.7016 9.65061 37.5097 9.6746 37.2937C9.6746 37.1977 9.6986 37.1017 9.77059 37.0537Z" fill="#E3E1DE"/>
<path d="M14.9056 38.2774L9.98648 37.9415C9.62655 37.9175 9.38659 37.6056 9.41059 37.2456C9.43458 37.1016 9.48257 36.9577 9.60255 36.8617L11.6662 34.7981C11.7622 34.7021 11.9061 34.7021 12.0021 34.7981L15.0736 37.8695C15.1456 37.9415 15.1695 38.0375 15.1216 38.1335C15.0736 38.2294 15.0016 38.2774 14.9056 38.2774ZM11.8341 35.326L9.93849 37.2216C9.8665 37.2696 9.8665 37.3896 9.93849 37.4376C9.96249 37.4616 9.98648 37.4856 10.0345 37.4856L14.2817 37.7735L11.8341 35.326Z" fill="#393533"/>
<path d="M19.5848 27.4795C19.4408 27.4795 19.3448 27.3595 19.3448 27.2395C19.3448 27.1675 19.3688 27.1196 19.4168 27.0716L21.7444 24.744C21.8404 24.648 21.9844 24.648 22.0804 24.744L23.5921 26.2557C23.6641 26.3277 23.6881 26.3997 23.6641 26.4957C23.6401 26.5677 23.5681 26.6396 23.4721 26.6636L19.6328 27.4795C19.6088 27.4795 19.5848 27.4795 19.5848 27.4795ZM21.9124 25.2479L20.3287 26.8316L22.9202 26.2797L21.9124 25.2479Z" fill="#393533"/>
<path d="M23.4002 26.4236L20.7606 26.9995C20.5687 27.0475 20.3767 26.9276 20.3287 26.7356C20.3047 26.6156 20.3287 26.4956 20.4247 26.3996L21.8884 24.9359L23.4002 26.4236Z" fill="#E3E1DE"/>
<path d="M20.7126 27.2395C20.3766 27.2395 20.1127 26.9756 20.1127 26.6396C20.1127 26.4717 20.1847 26.3277 20.2806 26.2077L21.7444 24.744C21.8404 24.648 21.9843 24.648 22.0803 24.744L23.592 26.2557C23.664 26.3277 23.688 26.3997 23.664 26.4957C23.64 26.5677 23.568 26.6396 23.4721 26.6636L20.8325 27.2395C20.7845 27.2395 20.7366 27.2395 20.7126 27.2395ZM21.9123 25.2479L20.6166 26.5437C20.5686 26.5917 20.5686 26.6396 20.5926 26.6876C20.6166 26.7356 20.6646 26.7596 20.7366 26.7596L22.9442 26.2797L21.9123 25.2479Z" fill="#393533"/>
<path d="M38.1095 12.1702C38.0615 12.0262 37.8935 11.9542 37.7495 12.0022C37.6056 12.0502 37.5336 12.2182 37.5816 12.3622C37.5816 12.3862 37.6056 12.4102 37.6056 12.4342C37.7495 12.7221 37.7016 13.082 37.5096 13.346C37.4136 13.466 37.4376 13.6339 37.5336 13.7299C37.6536 13.8259 37.8215 13.8019 37.9175 13.6819C38.2775 13.226 38.3494 12.6501 38.1095 12.1702Z" fill="#393533"/>
</svg>
