<svg width="32" height="32" viewBox="0 0 32 32" fill="none" xmlns="http://www.w3.org/2000/svg">
<path fill-rule="evenodd" clip-rule="evenodd" d="M22.6667 9.33329C22.6667 5.65139 19.6819 2.66663 16 2.66663C12.3181 2.66663 9.33335 5.65139 9.33335 9.33329C9.33335 13.0152 12.3181 16 16 16H14.6667C8.03927 16 2.66669 21.3725 2.66669 28C2.66669 28.7363 3.26364 29.3333 4.00002 29.3333H28C28.7364 29.3333 29.3334 28.7363 29.3334 28C29.3334 21.3725 23.9608 16 17.3334 16H16C17.7681 16 19.4638 15.2976 20.7141 14.0473C21.9643 12.7971 22.6667 11.1014 22.6667 9.33329ZM14.6667 18.6666C10.0262 18.6654 6.08962 22.0737 5.42669 26.6666H26.5734C25.9104 22.0737 21.9739 18.6654 17.3334 18.6666H14.6667ZM12 9.33329C12 11.5424 13.7909 13.3333 16 13.3333C17.0609 13.3333 18.0783 12.9119 18.8284 12.1617C19.5786 11.4116 20 10.3942 20 9.33329C20 7.12415 18.2092 5.33329 16 5.33329C13.7909 5.33329 12 7.12415 12 9.33329Z" fill="#E3E1DE"/>
</svg>
