<svg width="32" height="32" viewBox="0 0 32 32" fill="none" xmlns="http://www.w3.org/2000/svg">
<path d="M28 16C28.0085 21.5301 24.2367 26.35 18.8666 27.6711C13.4965 28.9922 7.91905 26.4723 5.36098 21.5693C2.80292 16.6664 3.92677 10.6501 8.08235 7.00128C12.2379 3.35245 18.349 3.01603 22.88 6.18665L22.7333 5.75999C22.4977 5.04202 22.8887 4.26896 23.6067 4.03332C24.3246 3.79768 25.0977 4.18868 25.3333 4.90665L26.6667 8.90665C26.8008 9.31342 26.7313 9.75985 26.48 10.1067C26.2177 10.476 25.7859 10.6869 25.3333 10.6667H21.3333C20.5969 10.6667 20 10.0697 20 9.33332C20.0099 8.75429 20.3924 8.24784 20.9467 8.07999C17.3391 5.82526 12.6633 6.29535 9.5768 9.22309C6.49028 12.1508 5.77412 16.7953 7.83536 20.5168C9.89659 24.2383 14.2136 26.095 18.3328 25.0317C22.4519 23.9684 25.3309 20.2542 25.3333 16C25.3333 15.2636 25.9303 14.6667 26.6667 14.6667C27.403 14.6667 28 15.2636 28 16Z" fill="#E3E1DE"/>
</svg>
