<svg width="32" height="32" viewBox="0 0 32 32" fill="none" xmlns="http://www.w3.org/2000/svg">
<path fill-rule="evenodd" clip-rule="evenodd" d="M21.7467 19.8666L28.9467 27.0533C29.1991 27.3036 29.3411 27.6444 29.3411 28C29.3411 28.3555 29.1991 28.6963 28.9467 28.9466C28.6963 29.199 28.3555 29.341 28 29.341C27.6445 29.341 27.3037 29.199 27.0534 28.9466L19.8667 21.7466C18.0033 23.2093 15.7022 24.0029 13.3334 24C7.44232 24 2.66669 19.2243 2.66669 13.3333C2.66669 7.44226 7.44232 2.66663 13.3334 2.66663C19.2244 2.66663 24 7.44226 24 13.3333C24.003 15.7022 23.2093 18.0032 21.7467 19.8666ZM13.3334 5.33329C8.91508 5.33329 5.33335 8.91501 5.33335 13.3333C5.33335 17.7516 8.91508 21.3333 13.3334 21.3333C17.7516 21.3333 21.3334 17.7516 21.3334 13.3333C21.3334 8.91501 17.7516 5.33329 13.3334 5.33329Z" fill="#E3E1DE"/>
</svg>
