<svg width="32" height="32" viewBox="0 0 32 32" fill="none" xmlns="http://www.w3.org/2000/svg">
<path fill-rule="evenodd" clip-rule="evenodd" d="M23.92 22.4401C24.6603 21.7334 25.6432 21.3373 26.6667 21.3334C28.8758 21.3334 30.6667 23.1242 30.6667 25.3334C30.6667 27.5425 28.8758 29.3334 26.6667 29.3334C24.4575 29.3334 22.6667 27.5425 22.6667 25.3334C22.6535 25.1603 22.6535 24.9865 22.6667 24.8134L10.1333 17.9601C9.42858 19.2139 8.10494 19.9928 6.66666 20.0001C4.45752 20.0001 2.66666 18.2092 2.66666 16.0001C2.66666 13.7909 4.45752 12.0001 6.66666 12.0001C8.10494 12.0073 9.42858 12.7862 10.1333 14.0401L22.6667 7.18672C22.6535 7.01363 22.6535 6.8398 22.6667 6.66672C22.6597 4.76778 23.9889 3.1257 25.8476 2.73688C27.7063 2.34807 29.5822 3.31969 30.3371 5.06218C31.0919 6.80467 30.5175 8.8377 28.9625 9.92764C27.4075 11.0176 25.3005 10.864 23.92 9.56005L12.12 16.0001L23.92 22.4401ZM28 6.66672C28 5.93034 27.403 5.33338 26.6667 5.33338C25.9303 5.33338 25.3333 5.93034 25.3333 6.66672C25.3333 7.4031 25.9303 8.00005 26.6667 8.00005C27.403 8.00005 28 7.4031 28 6.66672ZM6.66666 17.3334C5.93028 17.3334 5.33332 16.7364 5.33332 16.0001C5.33332 15.2637 5.93028 14.6667 6.66666 14.6667C7.40304 14.6667 7.99999 15.2637 7.99999 16.0001C7.99999 16.7364 7.40304 17.3334 6.66666 17.3334ZM25.3333 25.3334C25.3333 26.0698 25.9303 26.6667 26.6667 26.6667C27.403 26.6667 28 26.0698 28 25.3334C28 24.597 27.403 24.0001 26.6667 24.0001C25.9303 24.0001 25.3333 24.597 25.3333 25.3334Z" fill="#E3E1DE"/>
</svg>
