<svg width="32" height="32" viewBox="0 0 32 32" fill="none" xmlns="http://www.w3.org/2000/svg">
<path fill-rule="evenodd" clip-rule="evenodd" d="M29.1733 12.5733C29.5197 13.5837 29.2669 14.7031 28.52 15.4667L24.2533 19.84C24.2247 19.8895 24.2247 19.9505 24.2533 20L25.1733 26.0266C25.3492 27.0996 24.897 28.1789 24.0088 28.806C23.1206 29.4331 21.9523 29.4981 21 28.9733L16.0267 26.2133C15.9765 26.1872 15.9168 26.1872 15.8667 26.2133L10.8933 28.9733C9.94198 29.5098 8.76666 29.4502 7.87444 28.8203C6.98222 28.1903 6.53277 27.1027 6.72 26.0266L7.70666 19.9733C7.73119 19.9181 7.73119 19.8552 7.70666 19.8L3.49333 15.4667C2.75005 14.7014 2.4932 13.5867 2.82666 12.5733C3.16209 11.5611 4.03861 10.8238 5.09333 10.6666L10.8 9.74665C10.8574 9.73121 10.9057 9.69255 10.9333 9.63998L13.44 4.30665C13.8964 3.30397 14.8983 2.66209 16 2.66665C17.1149 2.66729 18.1242 3.32623 18.5733 4.34665L21.08 9.67998C21.1019 9.7318 21.146 9.77099 21.2 9.78665L26.92 10.6666C27.9737 10.8195 28.8481 11.5595 29.1733 12.5733ZM21.6133 20.4C21.4713 19.5061 21.7577 18.5975 22.3867 17.9467L26.6533 13.56C26.6921 13.4989 26.6921 13.421 26.6533 13.36C26.6299 13.2963 26.5737 13.2503 26.5067 13.24L20.8 12.36C19.8612 12.2208 19.0549 11.6199 18.6533 10.76L16.16 5.42665C16.1319 5.36469 16.0677 5.32725 16 5.33332C15.9588 5.32956 15.918 5.34334 15.8876 5.37126C15.8571 5.39918 15.8398 5.43866 15.84 5.47998L13.3333 10.8133C12.9502 11.6602 12.1701 12.2602 11.2533 12.4133L5.53333 13.2933C5.47003 13.3054 5.41868 13.3516 5.4 13.4133C5.36427 13.4752 5.36427 13.5514 5.4 13.6133L9.61333 17.9733C10.2479 18.6208 10.5352 19.5323 10.3867 20.4267L9.39999 26.48C9.39074 26.5521 9.42137 26.6236 9.47999 26.6667H9.65333L14.5867 23.88C15.4413 23.4078 16.4787 23.4078 17.3333 23.88L22.4133 26.64C22.4632 26.6827 22.5368 26.6827 22.5867 26.64C22.6453 26.5969 22.6759 26.5255 22.6667 26.4533L21.6133 20.4Z" fill="#E3E1DE"/>
</svg>
