<svg width="32" height="32" viewBox="0 0 32 32" fill="none" xmlns="http://www.w3.org/2000/svg">
<path d="M28.52 15.4667C29.2669 14.7031 29.5197 13.5837 29.1733 12.5733C28.8481 11.5595 27.9737 10.8195 26.92 10.6666L21.2 9.78665C21.146 9.77099 21.1019 9.7318 21.08 9.67998L18.5733 4.34665C18.1242 3.32623 17.1149 2.66729 16 2.66665C14.8983 2.66209 13.8964 3.30397 13.44 4.30665L10.9333 9.63998C10.9057 9.69255 10.8574 9.73121 10.8 9.74665L5.09333 10.6666C4.03861 10.8238 3.16209 11.5611 2.82666 12.5733C2.4932 13.5867 2.75005 14.7014 3.49333 15.4667L7.70666 19.8C7.73119 19.8552 7.73119 19.9181 7.70666 19.9733L6.72 26.0266C6.53277 27.1027 6.98222 28.1903 7.87444 28.8203C8.76666 29.4502 9.94198 29.5098 10.8933 28.9733L15.8667 26.2133C15.9168 26.1872 15.9765 26.1872 16.0267 26.2133L21 28.9733C21.9523 29.4981 23.1206 29.4331 24.0088 28.806C24.897 28.1789 25.3492 27.0996 25.1733 26.0266L24.2533 20C24.2247 19.9505 24.2247 19.8895 24.2533 19.84L28.52 15.4667Z" fill="#E3E1DE"/>
</svg>
