<svg width="44" height="44" viewBox="0 0 44 44" fill="none" xmlns="http://www.w3.org/2000/svg">
<path fill-rule="evenodd" clip-rule="evenodd" d="M5.5 8.25V33C5.5 34.5194 6.73063 35.75 8.25 35.75H16.5C18.0194 35.75 19.25 34.5194 19.25 33V8.25C19.25 6.73063 18.0194 5.5 16.5 5.5H8.25C6.73063 5.5 5.5 6.73063 5.5 8.25ZM24.75 8.25V22C24.75 23.5194 25.9806 24.75 27.5 24.75H35.75C37.2694 24.75 38.5 23.5194 38.5 22V8.25C38.5 6.73063 37.2694 5.5 35.75 5.5H27.5C25.9806 5.5 24.75 6.73063 24.75 8.25ZM5.5 0C2.46263 0 0 2.464 0 5.5V38.5C0 41.5374 2.464 44 5.5 44H38.5C41.5374 44 44 41.536 44 38.5V5.5C44 2.46263 41.536 0 38.5 0H5.5Z" fill="#E3E1DE"/>
</svg>
