<svg width="28" height="28" viewBox="0 0 28 28" fill="none" xmlns="http://www.w3.org/2000/svg">
<path fill-rule="evenodd" clip-rule="evenodd" d="M4.66669 0.666626H23.3334C25.5425 0.666626 27.3334 2.45749 27.3334 4.66663V23.3333C27.3334 25.5424 25.5425 27.3333 23.3334 27.3333H4.66669C2.45755 27.3333 0.666687 25.5424 0.666687 23.3333V4.66663C0.666687 2.45749 2.45755 0.666626 4.66669 0.666626ZM23.3334 24.6666C24.0697 24.6666 24.6667 24.0697 24.6667 23.3333V4.66663C24.6667 3.93025 24.0697 3.33329 23.3334 3.33329H4.66669C3.93031 3.33329 3.33335 3.93025 3.33335 4.66663V23.3333C3.33335 24.0697 3.93031 24.6666 4.66669 24.6666H23.3334Z" fill="#E3E1DE"/>
</svg>
