<svg width="32" height="32" viewBox="0 0 32 32" fill="none" xmlns="http://www.w3.org/2000/svg">
<path fill-rule="evenodd" clip-rule="evenodd" d="M13.3333 3.99995V6.73328C22.3564 7.42942 29.3253 14.9501 29.3333 23.9999V27.9999C29.3429 28.6562 28.8734 29.2218 28.2267 29.3333C28.1517 29.3471 28.0749 29.3471 28 29.3333C27.4386 29.333 26.9375 28.9812 26.7467 28.4533L25.0533 23.8133C23.2175 18.7849 18.6609 15.2547 13.3333 14.7333V17.3333C13.3346 17.854 13.0326 18.3279 12.56 18.5466C12.3842 18.6267 12.1932 18.6676 12 18.6666C11.6885 18.6672 11.3866 18.5587 11.1467 18.3599L3.14667 11.6933C2.84098 11.44 2.66406 11.0636 2.66406 10.6666C2.66406 10.2696 2.84098 9.89325 3.14667 9.63995L11.1467 2.97328C11.5445 2.64196 12.0981 2.57083 12.5667 2.79085C13.0353 3.01087 13.3342 3.48226 13.3333 3.99995ZM10.6667 13.3333C10.6667 12.5969 11.2636 11.9999 12 11.9999C17.7174 12.0105 23.027 14.9625 26.0533 19.8133C24.2017 13.5967 18.4865 9.33464 12 9.33328C11.2636 9.33328 10.6667 8.73633 10.6667 7.99995V6.83995L6.08 10.6666L10.6667 14.4933V13.3333Z" fill="#E3E1DE"/>
</svg>
