<svg width="32" height="32" viewBox="0 0 32 32" fill="none" xmlns="http://www.w3.org/2000/svg">
<path fill-rule="evenodd" clip-rule="evenodd" d="M5.36397 11.8963C5.33646 12.2489 5.45015 12.598 5.68002 12.8667C5.90986 13.1355 6.23707 13.3019 6.58964 13.3294C6.94222 13.3569 7.29128 13.2432 7.56002 13.0134L14.6667 6.9067V22.6667C14.6667 23.4031 15.2636 24 16 24C16.7364 24 17.3334 23.4031 17.3334 22.6667V6.9067L24.4934 13.0134C25.053 13.492 25.8947 13.4263 26.3734 12.8667C26.852 12.307 26.7863 11.4653 26.2267 10.9867L16.8934 2.9867C16.8269 2.93893 16.7554 2.89869 16.68 2.8667L16.52 2.76003C16.2032 2.63386 15.8501 2.63386 15.5334 2.76003L15.3734 2.8667C15.298 2.89869 15.2265 2.93893 15.16 2.9867L5.82669 10.9867C5.55792 11.2165 5.39147 11.5437 5.36397 11.8963ZM26.6667 24C26.6667 23.2637 27.2636 22.6667 28 22.6667C28.7364 22.6667 29.3334 23.2637 29.3334 24V26.6667C29.2125 28.2392 27.8545 29.4252 26.28 29.3334H5.72002C4.14556 29.4252 2.78756 28.2392 2.66669 26.6667V24C2.66669 23.2637 3.26364 22.6667 4.00002 22.6667C4.7364 22.6667 5.33335 23.2637 5.33335 24V26.5734C5.4519 26.6377 5.5852 26.6698 5.72002 26.6667H26.28C26.4148 26.6698 26.5481 26.6377 26.6667 26.5734V24Z" fill="#E3E1DE"/>
</svg>
