<svg width="32" height="32" viewBox="0 0 32 32" fill="none" xmlns="http://www.w3.org/2000/svg">
<path fill-rule="evenodd" clip-rule="evenodd" d="M28.9467 27.0533L21.7467 19.8666C23.2093 18.0032 24.0029 15.7022 24 13.3333C24 7.44226 19.2244 2.66663 13.3333 2.66663C7.44229 2.66663 2.66666 7.44226 2.66666 13.3333C2.66666 19.2243 7.44229 24 13.3333 24C15.7022 24.0029 18.0033 23.2093 19.8667 21.7466L27.0533 28.9466C27.3037 29.199 27.6445 29.341 28 29.341C28.3555 29.341 28.6963 29.199 28.9467 28.9466C29.1991 28.6963 29.3411 28.3555 29.3411 28C29.3411 27.6444 29.1991 27.3036 28.9467 27.0533ZM5.33333 13.3333C5.33333 8.91501 8.91505 5.33329 13.3333 5.33329C17.7516 5.33329 21.3333 8.91501 21.3333 13.3333C21.3333 17.7516 17.7516 21.3333 13.3333 21.3333C8.91505 21.3333 5.33333 17.7516 5.33333 13.3333ZM17.3333 14.6666C18.0697 14.6666 18.6667 14.0697 18.6667 13.3333C18.6667 12.5969 18.0697 12 17.3333 12H14.6667V9.33329C14.6667 8.59691 14.0697 7.99996 13.3333 7.99996C12.597 7.99996 12 8.59691 12 9.33329V12H9.33333C8.59695 12 8 12.5969 8 13.3333C8 14.0697 8.59695 14.6666 9.33333 14.6666H12V17.3333C12 18.0697 12.597 18.6666 13.3333 18.6666C14.0697 18.6666 14.6667 18.0697 14.6667 17.3333V14.6666H17.3333Z" fill="#E3E1DE"/>
</svg>
